<?xml version="1.0" encoding="UTF-8"?>
<svg id="Layer_2" data-name="Layer 2" xmlns="http://www.w3.org/2000/svg" viewBox="0 0 94.75 126.44">
  <g id="IMG">
    <g>
      <path d="M81.99,64.84c-.57-1.67-1.17-3.35-1.78-5.01-2.16-6.01-4.47-12.26-6.73-18.74h-.04c-3.76-10.02-8.25-19.42-11.81-30.52l5.49-4.29c1.13-4.29-2.35-6.02-5.18-4.67-2.41,1.15-3.95,4.88-6.76,4.55-7.36-.87-16.16-.73-23.84,2.26-2.22-2.07-5.22-5.64-7.46-5.51-4.01.23-6.03,5.98.02,8.37,0,0-3.81,17.58-4.28,28.69-.02.37-.04.74-.06,1.12h-.14C9.22,69.31-4.36,98.12,3.39,114.04l3.55,5.62c17.16,7.56,41.85,8.73,73.68,3.83l5.86-3.97c7.88-14.83,3.08-33.12-4.49-54.68Z" fill="#e89654" fill-rule="evenodd"/>
      <path d="M3.53,82.2c.78-1.17,1.63-2.25,2.53-3.27.6-.69,1.23-1.36,1.88-2,.65-.64,1.32-1.26,2.03-1.85,1.05-.86,2.16-1.66,3.37-2.38.2-.11.28-.36.17-.56-.11-.2-.36-.28-.56-.17-1.31.65-2.53,1.39-3.67,2.22-.77.57-1.51,1.18-2.2,1.84-.69.66-1.33,1.37-1.92,2.13-.87,1.11-1.64,2.31-2.35,3.58-.12.2-.06.47.14.59.2.12.47.06.59-.14Z" fill="#e89654" fill-rule="evenodd"/>
      <path d="M4.36,78.44c1.04-.95,2.12-1.79,3.23-2.58.75-.53,1.52-1.03,2.3-1.49.78-.47,1.58-.91,2.41-1.31,1.22-.59,2.5-1.1,3.84-1.51.22-.06.35-.28.3-.51-.06-.22-.28-.35-.51-.3-1.43.32-2.79.75-4.09,1.29-.89.37-1.75.78-2.58,1.27-.82.48-1.62,1.02-2.37,1.61-1.11.87-2.14,1.85-3.14,2.91-.17.17-.17.44,0,.61.17.17.44.17.61,0Z" fill="#e89654" fill-rule="evenodd"/>
      <path d="M80.6,87.39c-1.41,2.76-3.21,5.36-5.28,7.76-1.36,1.57-2.84,3.06-4.41,4.44-1.57,1.38-3.23,2.67-4.96,3.82-2.64,1.76-5.45,3.22-8.35,4.31-.21.08-.32.31-.24.52.08.21.31.32.52.24,2.99-1.04,5.91-2.45,8.64-4.19,1.8-1.15,3.53-2.43,5.14-3.85,1.61-1.42,3.11-2.96,4.48-4.6,2.07-2.5,3.82-5.23,5.18-8.09.1-.2.02-.44-.18-.54-.2-.1-.44-.02-.54.18Z" fill="#4c2329" fill-rule="evenodd"/>
      <path d="M53.66,102.6c1.29-1.22,2.42-2.5,3.45-3.86.78-1.03,1.5-2.09,2.19-3.2.67-1.07,1.3-2.19,1.94-3.32,1.2-2.21,2.34-4.46,3.19-6.8.57-1.57,1.02-3.19,1.29-4.87.04-.22-.11-.43-.33-.47-.22-.04-.43.11-.47.33-.32,1.62-.81,3.16-1.4,4.67-.9,2.27-2.05,4.45-3.27,6.59-.62,1.13-1.25,2.23-1.89,3.3-.65,1.09-1.32,2.15-2.05,3.18-.95,1.35-1.99,2.64-3.2,3.87-.16.15-.16.41,0,.57.15.16.41.16.57,0Z" fill="#4c2329" fill-rule="evenodd"/>
      <path d="M41.14,102.45c-1.58-1.87-2.96-3.85-4.23-5.9-.77-1.23-1.49-2.49-2.19-3.77-.47-.85-.93-1.7-1.38-2.57-.94-1.79-1.88-3.62-2.66-5.5-.51-1.25-.95-2.52-1.26-3.83-.05-.22-.26-.36-.48-.31-.22.05-.36.26-.31.48.27,1.37.68,2.7,1.17,4,.73,1.94,1.64,3.81,2.55,5.66.44.88.89,1.76,1.37,2.62.72,1.3,1.48,2.57,2.29,3.8,1.35,2.05,2.85,4,4.53,5.85.15.17.4.18.56.04.17-.15.18-.4.04-.56Z" fill="#4c2329" fill-rule="evenodd"/>
      <path d="M35.66,107.12c-2.83-1.16-5.44-2.6-7.9-4.27-1.24-.84-2.43-1.74-3.6-2.69-1.16-.94-2.29-1.92-3.39-2.96-1.62-1.51-3.23-3.18-4.54-5.04-.86-1.23-1.59-2.54-2.09-3.95-.07-.21-.3-.32-.51-.25-.21.07-.32.3-.25.51.48,1.5,1.2,2.9,2.08,4.22,1.3,1.96,2.92,3.72,4.56,5.31,1.11,1.07,2.25,2.1,3.43,3.05,1.2.97,2.44,1.87,3.73,2.7,2.55,1.65,5.28,3.03,8.2,4.12.21.08.44-.02.52-.23.08-.21-.02-.44-.23-.52Z" fill="#4c2329" fill-rule="evenodd"/>
      <path d="M35.97,107.87c.88-2.13,2.49-3.83,5.24-4.89l2.95,3.41c2.46,3.37,1.9,3.95-1.3,1.62,3.33,5.45,1.14,4.11-1.99,1.61,3.34,5.04,1.12,3.8-4.9-1.76Z" fill="#bb644a" fill-rule="evenodd"/>
      <path d="M57.78,108.41c-.73-2.23-2.33-4.15-5.29-5.57l-3.73,2.98c-3.17,3.01-2.62,3.66,1.26,1.78-4.4,4.95-1.78,3.92,2.04,1.87-4.36,4.55-1.71,3.61,5.72-1.07Z" fill="#bb644a" fill-rule="evenodd"/>
      <path d="M87.55,95.79c.02.53.02,1.05.03,1.58,0,.35,0,.7,0,1.05,0,.35,0,.7.02,1.05.01.53.03,1.05.04,1.57,0,.44.01.88,0,1.32-.02.22.15.42.37.43.22.02.42-.15.43-.37.09-.67.18-1.34.23-2.01.03-.45.06-.9.05-1.35,0-.45-.03-.9-.08-1.35-.07-.68-.18-1.34-.3-2.01-.03-.22-.22-.38-.44-.35-.22.03-.38.22-.35.44Z" fill="#4c2329" fill-rule="evenodd"/>
      <path d="M85.64,101.65c-.03,1.04-.13,2.05-.24,3.05-.04.34-.08.67-.12,1.01-.04.34-.08.67-.12,1.01-.14,1.11-.32,2.22-.59,3.34-.06.21.06.44.27.5.21.06.44-.06.5-.27.29-.84.54-1.68.73-2.53.13-.57.24-1.15.32-1.73.08-.58.12-1.17.13-1.75.02-.87-.02-1.74-.08-2.63,0-.22-.19-.4-.41-.39-.22,0-.4.19-.39.41Z" fill="#4c2329" fill-rule="evenodd"/>
      <path d="M81.36,67.77c.6.73,1.15,1.48,1.68,2.24.18.25.35.51.53.76.18.25.35.5.52.76.57.84,1.1,1.71,1.55,2.66.09.21.32.3.53.22.21-.09.3-.32.22-.53-.28-.77-.59-1.52-.97-2.23-.25-.48-.52-.95-.82-1.4-.3-.44-.63-.87-.98-1.28-.51-.61-1.08-1.17-1.66-1.74-.15-.16-.4-.17-.56-.02-.16.15-.17.4-.02.56Z" fill="#e89654" fill-rule="evenodd"/>
      <path d="M80.47,63.88c.39.46.76.93,1.15,1.39.38.46.76.93,1.14,1.39.25.31.51.61.76.91.25.3.51.61.75.92.53.66,1.04,1.33,1.51,2.04.11.19.36.25.55.14.19-.11.25-.36.14-.55-.41-.78-.86-1.53-1.36-2.26-.33-.48-.68-.95-1.05-1.41-.37-.45-.76-.88-1.16-1.3-.6-.63-1.23-1.22-1.86-1.82-.15-.16-.4-.17-.56-.02-.16.15-.17.4-.02.56Z" fill="#e89654" fill-rule="evenodd"/>
      <path d="M34.46,56.02c-.41-.16-.81-.35-1.22-.56-.26-.13-.52-.28-.77-.42-.21-.12-.42-.25-.62-.38-.2-.13-.41-.26-.6-.39-.66-.46-1.27-.99-1.73-1.65-.11-.19-.36-.25-.54-.14-.19.11-.25.36-.14.54.31.62.72,1.18,1.21,1.68.32.33.67.63,1.05.89.38.26.78.47,1.2.65.63.27,1.29.44,1.94.58.22.06.45-.06.51-.28.06-.22-.06-.45-.28-.51Z" fill="#bb644a" fill-rule="evenodd"/>
      <path d="M26.59,53.43c-.22-.22-.42-.45-.63-.68-.2-.22-.4-.45-.6-.68-.1-.12-.21-.24-.32-.36-.16-.18-.32-.36-.47-.54-.27-.34-.53-.68-.73-1.06-.09-.2-.32-.3-.52-.21-.2.09-.3.32-.21.52.15.47.34.92.58,1.34.16.28.34.56.54.81.2.25.43.48.68.69.37.31.77.57,1.17.82.18.14.44.11.58-.07.14-.18.11-.44-.07-.58Z" fill="#bb644a" fill-rule="evenodd"/>
      <path d="M58.6,56.16c.59-.27,1.17-.54,1.72-.86.37-.22.73-.46,1.07-.72.34-.26.66-.55.96-.86.46-.45.88-.93,1.28-1.44.15-.16.14-.41-.02-.56-.16-.15-.41-.14-.56.02-.45.43-.92.8-1.4,1.17-.27.21-.54.41-.82.61-.18.13-.37.27-.55.4-.34.25-.68.51-1.03.76-.35.25-.69.51-1.05.75-.2.11-.27.36-.16.56.11.2.36.27.56.16Z" fill="#bb644a" fill-rule="evenodd"/>
      <path d="M10.76,86.2c.01-.56.04-1.11.08-1.67.02-.37.05-.73.08-1.1.02-.3.05-.61.07-.91.02-.3.05-.61.07-.91.09-1.01.22-2.02.48-3.01.07-.21-.05-.43-.26-.5-.21-.07-.43.05-.5.26-.29.76-.53,1.52-.7,2.31-.12.52-.21,1.05-.26,1.59-.05.53-.07,1.07-.07,1.6.01.8.09,1.59.18,2.38.01.23.2.4.43.39.23-.01.4-.2.39-.43Z" fill="#bb644a" fill-rule="evenodd"/>
      <path d="M8.29,82.2c.17-.49.36-.98.56-1.48.13-.32.26-.64.39-.96.11-.26.22-.53.33-.79.11-.26.22-.52.34-.78.39-.86.85-1.68,1.46-2.4.15-.16.14-.41-.01-.56-.16-.15-.41-.15-.56.01-.58.53-1.07,1.13-1.5,1.77-.28.43-.54.88-.76,1.34-.21.46-.39.94-.54,1.43-.22.73-.37,1.47-.51,2.2-.06.22.07.45.29.5.22.06.44-.07.5-.29Z" fill="#bb644a" fill-rule="evenodd"/>
      <path d="M77.76,77.26c.11.3.2.6.31.91.1.3.2.6.31.89.09.23.18.46.27.69.14.35.28.69.4,1.04.1.29.2.59.28.89.03.22.24.36.45.33.22-.03.36-.24.33-.45-.03-.51-.09-1.01-.2-1.5-.07-.33-.15-.66-.26-.97-.11-.31-.24-.62-.39-.92-.22-.44-.49-.85-.76-1.27-.1-.2-.35-.29-.55-.19-.2.1-.29.35-.19.55Z" fill="#bb644a" fill-rule="evenodd"/>
      <path d="M76.76,71.75c.24.4.45.8.68,1.2.23.4.44.8.66,1.19.12.21.23.42.35.63.17.31.35.63.51.95.29.57.55,1.15.76,1.77.06.21.27.34.48.28.21-.06.34-.27.28-.48-.13-.69-.31-1.35-.55-1.99-.16-.43-.34-.85-.55-1.26-.21-.4-.45-.79-.71-1.17-.38-.55-.81-1.07-1.25-1.59-.13-.19-.39-.23-.57-.1-.19.13-.23.39-.1.57Z" fill="#bb644a" fill-rule="evenodd"/>
      <path d="M76.56,66.58c.15.36.29.71.44,1.06.15.35.31.7.48,1.04.1.2.21.4.32.6.11.2.22.39.34.59.34.59.69,1.17,1.01,1.77.09.2.32.29.52.21.2-.09.29-.32.21-.52-.19-.55-.39-1.1-.61-1.64-.15-.36-.3-.71-.47-1.06-.17-.34-.36-.68-.56-1.01-.3-.49-.63-.96-.95-1.44-.11-.2-.36-.28-.56-.17-.2.11-.28.36-.17.56Z" fill="#bb644a" fill-rule="evenodd"/>
      <path d="M25.75,13.62c.99-1.13,2.01-2,3.05-2.68,0,0-6.12-7.72-8.53-3.68-1.9,3.19,5.48,6.36,5.48,6.36Z" fill="#bb644a" fill-rule="evenodd"/>
      <path d="M58.7,8.63c1.39.59,2.39,1.59,2.94,3.03,0,0,7.3-4.65,5.01-7.15-2.9-3.17-7.95,4.12-7.95,4.12Z" fill="#bb644a" fill-rule="evenodd"/>
      <path d="M59.04,8.6c.33-.36.7-.72,1.09-1.08.25-.22.5-.44.76-.65.21-.17.43-.34.65-.5.22-.16.44-.32.67-.46.76-.47,1.59-.81,2.5-.83.22,0,.4-.16.41-.38,0-.22-.16-.4-.38-.41-.82-.09-1.61.04-2.36.31-.49.18-.96.41-1.41.71-.43.29-.82.63-1.18.99-.55.56-1,1.18-1.41,1.78-.14.18-.11.44.07.58.18.14.44.11.58-.07Z" fill="#4c2329" fill-rule="evenodd"/>
      <path d="M59.15,8.57c.3-.12.59-.21.89-.31.19-.07.38-.12.57-.18.16-.05.31-.09.47-.14.15-.04.31-.09.46-.13.5-.12,1.02-.2,1.6-.14.21.04.42-.09.47-.31.04-.21-.09-.42-.31-.47-.5-.16-.98-.23-1.45-.23-.33,0-.66.03-.98.11-.31.08-.61.19-.91.33-.41.2-.79.46-1.19.74-.2.11-.28.36-.17.56.11.2.36.27.56.17Z" fill="#4c2329" fill-rule="evenodd"/>
      <path d="M28.91,10.52c-.42-.38-.86-.74-1.35-1.04-.34-.2-.69-.38-1.06-.5-.38-.13-.78-.2-1.18-.23-.59-.04-1.19.03-1.79.23-.21.05-.34.27-.29.48.05.21.27.34.48.29.67-.12,1.3,0,1.92.18.19.06.37.13.55.2.19.07.37.14.55.22.23.1.45.19.67.3.34.17.68.34,1.01.53.18.13.44.09.57-.09.13-.18.09-.44-.09-.57Z" fill="#4c2329" fill-rule="evenodd"/>
      <path d="M28.82,10.49c-.22-.49-.46-.96-.77-1.38-.22-.29-.47-.56-.75-.79-.29-.23-.61-.42-.95-.57-.49-.21-1.03-.34-1.61-.35-.22-.02-.41.13-.44.35-.02.22.13.41.35.44.61.12,1.11.41,1.57.76.14.11.27.22.4.34.13.12.26.23.39.36.16.15.31.3.46.47.23.25.45.5.65.78.11.2.36.26.56.15.2-.11.26-.36.15-.56Z" fill="#4c2329" fill-rule="evenodd"/>
      <path d="M30.46,7.57c-.25-.87-.6-1.73-1.07-2.52-.32-.53-.69-1.03-1.12-1.48-.43-.45-.92-.85-1.44-1.18-.78-.49-1.64-.85-2.58-1.04-.21-.05-.43.08-.48.29-.05.21.08.43.29.48,1.08.33,1.99.93,2.79,1.67.24.22.46.46.68.71.22.24.43.5.63.76.24.32.47.64.68.98.32.52.62,1.05.85,1.6.08.21.31.33.53.25.21-.08.33-.31.25-.53Z" fill="#e89654" fill-rule="evenodd"/>
      <path d="M28.67,5.76c-.36-.42-.77-.89-1.23-1.35-.29-.29-.59-.57-.92-.83-.27-.22-.56-.43-.85-.61-.31-.19-.62-.36-.95-.49-1.17-.49-2.4-.64-3.59-.15-.21.07-.31.3-.24.51.07.21.3.31.51.24.98-.29,1.94-.03,2.84.44.27.14.53.3.79.47.26.17.52.34.78.53.31.23.62.46.92.7.49.39.95.78,1.34,1.14.16.16.42.17.58,0,.16-.16.17-.42,0-.58Z" fill="#e89654" fill-rule="evenodd"/>
      <path d="M60,4.38c.2-.35.42-.7.65-1.05.15-.22.3-.44.46-.65.13-.17.26-.34.4-.5.13-.16.27-.32.42-.46.48-.46,1.04-.83,1.78-.93.22-.01.38-.2.37-.42-.01-.22-.2-.38-.42-.37-.98-.01-1.79.32-2.48.86-.21.16-.4.34-.57.54-.17.19-.32.4-.46.62-.16.25-.3.52-.43.79-.18.41-.33.82-.47,1.23-.09.21,0,.45.21.54.21.09.45,0,.54-.21Z" fill="#e89654" fill-rule="evenodd"/>
      <path d="M60.92,4.15c.43-.32.91-.67,1.43-1.02.31-.21.63-.42.96-.61.27-.16.54-.31.81-.45.27-.14.55-.27.82-.38.92-.35,1.87-.47,2.8,0,.19.11.43.04.54-.15.11-.19.04-.43-.15-.54-1.12-.73-2.36-.75-3.56-.39-.34.1-.67.23-.99.4-.31.15-.61.33-.9.53-.34.23-.67.49-.98.75-.49.42-.93.85-1.32,1.24-.17.15-.19.41-.04.58.15.17.41.19.58.04Z" fill="#e89654" fill-rule="evenodd"/>
      <path d="M20.01,37.59c-.18.44-.37.87-.55,1.3-.18.43-.37.86-.55,1.29-.1.23-.19.46-.28.69-.14.34-.27.69-.42,1.03-.26.61-.53,1.21-.85,1.8-.12.18-.06.43.12.55.18.12.43.06.55-.12.42-.57.8-1.15,1.14-1.75.23-.41.45-.82.63-1.24.18-.42.34-.86.48-1.3.21-.66.36-1.33.51-2,.07-.22-.05-.45-.27-.51-.22-.07-.45.05-.51.27Z" fill="#e89654" fill-rule="evenodd"/>
      <path d="M19.76,40.84c-.24.75-.55,1.46-.87,2.17-.21.47-.43.94-.66,1.41-.22.47-.44.94-.68,1.41-.36.7-.72,1.39-1.13,2.08-.12.18-.07.43.11.55.18.12.43.07.55-.11.49-.66.97-1.31,1.4-1.99.29-.46.57-.93.81-1.42.24-.49.46-.99.64-1.51.27-.77.46-1.56.62-2.38.06-.22-.08-.44-.3-.5-.22-.06-.44.08-.5.3Z" fill="#e89654" fill-rule="evenodd"/>
      <path d="M44.89,6.72c.17-.35.35-.69.53-1.03.12-.22.25-.43.38-.63.11-.17.22-.33.33-.48.11-.15.23-.3.36-.43.41-.42.92-.74,1.63-.83.22,0,.39-.19.38-.41,0-.22-.19-.39-.41-.38-.98-.03-1.74.28-2.37.78-.19.16-.37.34-.53.54-.15.19-.28.4-.4.62-.13.25-.24.51-.34.78-.14.38-.24.78-.34,1.19-.08.21.04.45.25.52.21.08.45-.04.52-.25Z" fill="#e89654" fill-rule="evenodd"/>
      <path d="M45.29,6.7c.19-.09.38-.18.57-.28.18-.1.36-.19.53-.3.1-.06.2-.13.29-.19.1-.07.19-.13.28-.2.28-.2.55-.39.87-.51.21-.04.35-.25.31-.47-.04-.21-.25-.35-.47-.31-.36.02-.7.1-1.04.23-.22.08-.43.17-.62.29-.19.11-.37.25-.53.39-.25.22-.45.46-.67.68-.18.13-.22.39-.09.57.13.18.39.22.57.09Z" fill="#e89654" fill-rule="evenodd"/>
      <path d="M44.57,5.7c-.31-.22-.6-.43-.92-.6-.23-.12-.46-.21-.7-.27-.25-.07-.5-.1-.76-.11-.37-.02-.74,0-1.14.08-.22.01-.39.2-.38.41,0,.22.2.39.41.38.34.03.64.11.94.19.17.05.33.11.5.16.11.04.22.07.34.11.22.06.43.12.65.19.23.07.45.12.68.2.2.1.45.03.55-.18.1-.2.03-.45-.18-.55Z" fill="#e89654" fill-rule="evenodd"/>
      <path d="M41.98,3.49c.25.23.49.48.74.71.24.23.47.46.71.69.12.12.24.24.36.36.17.18.34.36.49.55.26.34.48.71.61,1.15.04.21.25.36.46.31.21-.04.36-.25.31-.46-.06-.58-.23-1.1-.49-1.58-.17-.32-.38-.62-.63-.89-.23-.26-.5-.49-.79-.7-.41-.3-.85-.55-1.29-.81-.18-.14-.44-.1-.58.08-.14.18-.1.44.08.58Z" fill="#e89654" fill-rule="evenodd"/>
      <path d="M34.68,31.69c-1.12,5.45-1.48,18.47,1.87,22.86,4.07,5.33,14.43,4.9,17.82.5,3.39-4.4,1.71-17.89.07-23.96-.45-1.64-5.18-7.48-10.05-7.36-4.62.12-9.33,6.1-9.71,7.96Z" fill="#bb644a" fill-rule="evenodd"/>
      <path d="M38.21,36.94c.32.09.63.2.93.32.2.08.39.16.58.24.16.07.31.14.47.22.15.07.3.15.45.23.48.27.93.6,1.3,1.09.12.19.36.24.55.13.19-.12.24-.36.13-.55-.25-.5-.57-.92-.94-1.27-.26-.25-.55-.46-.86-.63-.3-.16-.63-.29-.97-.38-.48-.12-.98-.17-1.5-.2-.22-.04-.43.12-.47.34-.04.22.12.43.34.47Z" fill="#4c2329" fill-rule="evenodd"/>
      <path d="M48.99,38.98c.21-.24.44-.46.68-.7.15-.15.3-.29.45-.43.12-.11.25-.22.37-.33.12-.1.24-.21.37-.3.41-.3.86-.54,1.42-.55.22.02.41-.15.43-.36.02-.22-.15-.41-.36-.43-.77-.13-1.47.04-2.09.38-.18.1-.36.22-.52.35-.16.13-.3.27-.44.43-.16.18-.3.37-.44.57-.2.29-.36.6-.53.89-.13.18-.09.44.1.57.18.13.44.09.57-.1Z" fill="#4c2329" fill-rule="evenodd"/>
      <path d="M43.39,55.43c.45-.24.89-.4,1.31-.54.27-.08.52-.15.78-.19.17-.03.34-.06.52-.07.43-.04.86-.03,1.31.06.42.09.86.22,1.32.44.19.11.43.04.54-.15.11-.19.04-.43-.15-.54-.6-.41-1.18-.68-1.76-.84-.45-.12-.9-.18-1.35-.15-.44.03-.88.13-1.31.3-.56.22-1.1.56-1.65.99-.19.12-.25.38-.12.57.12.19.38.25.57.12Z" fill="#4c2329" fill-rule="evenodd"/>
      <path d="M46.34,52.63c.04-1.23.09-2.47.09-3.72,0-.83-.02-1.66-.07-2.49-.05-.83-.14-1.66-.25-2.49-.17-1.25-.4-2.48-.69-3.7-.04-.21-.25-.35-.47-.31-.21.04-.35.25-.31.47.2,1.2.32,2.42.4,3.65.05.68.08,1.37.11,2.06.02.46.04.92.07,1.37.05.86.09,1.72.14,2.58.05.87.1,1.73.15,2.59,0,.23.19.41.42.41.23,0,.41-.19.41-.42Z" fill="#4c2329" fill-rule="evenodd"/>
      <ellipse cx="29.08" cy="24.18" rx="1.46" ry="2.21" fill="#4c2329"/>
      <ellipse cx="58.7" cy="21.97" rx="1.46" ry="2.21" fill="#4c2329"/>
      <path d="M19.51,123.76c-3.45,2.39-19.23,1.66-19.49.09-.54-3.34,9.19-8.73,19.49-.09Z" fill="#c67057" fill-rule="evenodd"/>
      <path d="M10.71,121.21c-.49.11-1,.26-1.49.49-.32.15-.63.34-.91.56-.28.22-.53.49-.75.78-.31.42-.55.91-.69,1.47-.05.15.04.32.19.37.15.05.32-.04.37-.19.23-.62.61-1.09,1.04-1.48.14-.12.28-.24.42-.35.15-.11.3-.22.45-.32.5-.32,1.02-.59,1.53-.77.15-.05.24-.21.2-.36s-.21-.24-.36-.2Z" fill="#4c2329" fill-rule="evenodd"/>
      <path d="M4.44,121.11c-.33.17-.64.37-.92.62-.19.17-.36.35-.5.56-.14.2-.26.43-.35.67-.13.33-.22.69-.26,1.09-.03.16.07.31.23.34.16.03.31-.07.35-.23.12-.43.32-.8.54-1.14.07-.1.14-.2.21-.3.07-.1.15-.2.22-.3.24-.31.5-.59.8-.83.13-.09.17-.27.08-.4s-.27-.17-.4-.08Z" fill="#4c2329" fill-rule="evenodd"/>
      <path d="M76.4,124.11c3.24,2.39,18.09,1.66,18.33.09.51-3.34-8.64-8.73-18.33-.09Z" fill="#c67057" fill-rule="evenodd"/>
      <path d="M84.51,122.11c.48.19.98.45,1.45.78.14.1.29.21.42.32.14.11.27.22.4.35.4.39.75.86.96,1.47.05.16.21.24.36.2.16-.05.24-.21.2-.36-.13-.55-.34-1.02-.62-1.44-.2-.3-.44-.56-.7-.79-.27-.23-.56-.42-.87-.58-.47-.24-.97-.4-1.44-.51-.15-.05-.32.04-.37.19-.05.15.04.32.19.37Z" fill="#4c2329" fill-rule="evenodd"/>
      <path d="M90.25,121.94c.28.24.52.53.75.84.07.1.14.2.21.3.07.1.14.2.2.3.21.33.39.7.51,1.13.03.16.18.26.34.23.16-.03.26-.18.24-.34-.04-.38-.12-.74-.24-1.07-.09-.24-.19-.46-.32-.67-.14-.21-.3-.4-.47-.57-.27-.26-.57-.46-.88-.64-.13-.09-.31-.06-.41.07-.09.13-.06.31.07.41Z" fill="#4c2329" fill-rule="evenodd"/>
    </g>
  </g>
</svg>